<svg xmlns="http://www.w3.org/2000/svg" viewBox="0 0 512 512"><path fill="#FF643D" d="M298.3 128C318.2 128 336 144.7 336 166.4c0 11.1-4.75 21.1-12.25 28.36l24.42 59.54c.375 .125 .8125 0 1.188 .25C367.2 262.2 378.2 266.9 384 272c6.5 6.625 8.62 15.64 6.62 25.27c2.75 3.875 5 8.125 6.38 12.5c4.12 15.76-4 38.88-22.88 57.75c-6.625 6.5-14.75 11.5-23.38 14.63C348.9 401 340.5 416 324.5 416c-5.875 0-11.38-1.125-16.38-3.125c-3.75 1.75-7.75 2.5-11.75 2.5c-12.62 0-24.25-9-30.12-22.62c-1.13 0-2.25 0-3.375 0C218.2 392.8 200 360.2 200 334.6c0-2.875 .375-5.875 .875-8.625c-10.88-3.5-20.12-10.12-26.75-18.75C159 319.6 147.2 328 133.2 328L133.2 415.6C133.2 420.8 137.6 424.9 142.8 424.9c2.375 0 4.75-.875 6.75-2.5L200 384h56c4.375 0 8-3.625 8-8S260.4 368 256 368H196.1l-58.25 46.25c-6 4.875-14 6.75-21.38 5.25C103.9 417.9 94.25 409.5 92.75 398.9C90.88 392.1 91.13 381.8 96.13 375L132.1 328c-11.5-9.375-19.75-22.88-22.62-38.5c-37-11.75-46.13-37.38-46.13-61.25L64 200c.125 0 0 0 0 0c0-13.38 4.75-25.62 12.5-35.25c7.75-9.625 18.88-16.5 31.62-19C118.9 121.6 157.2 104.2 196.8 96c6.125-1.125 12-1.75 18.38-1.75c5 0 9.75 .625 14.62 1.5c4.75-10.62 15.62-18 28.25-18L298.3 128zM132.1 174.4C124.1 174.4 117.2 182.1 117.2 191.9s6.875 17.63 15.75 17.63S148.7 201.6 148.7 191.9S140.1 174.4 132.1 174.4z"/></svg>
